# xmcd
#
# Track frame offsets:
#	150
#	14045
#	24757
#	41698
#	50970
#	65271
#	74996
#	87722
#	102514
#	115372
#	127549
#	140500
#	178936
#	201860
#	220797
#	234671
#	257183
#	277415
#	290677
#	308540
#
# Disc length: 4375 seconds
#
# Revision: 0
# Processed by: cddbd v1.5.1PL0 Copyright (c) Steve Scherf et al.
# Submitted via: dBpowerAMP V4.0
#
DISCID=45111514
DTITLE=Johnny Cash - Riding The Rails
DYEAR=1973
DGENRE=Country
TTITLE0=Casey Jones
TTITLE1=Hey Porter
TTITLE2=The City Of New Orleans
TTITLE3=One More Ride
TTITLE4=Orange Blossom Special
TTITLE5=Waiting For A Train
TTITLE6=Wreck Of The Old '97
TTITLE7=South Wind
TTITLE8=I've Got A Thing About Trains
TTITLE9=Wabash Cannon Ball
TTITLE10=Locomotive Man
TTITLE11=Legend Of John Henry's Hammer
TTITLE12=Loading Coal
TTITLE13=Slow Rider
TTITLE14=Lumberjack
TTITLE15=Dorraine Of Ponchartrain
TTITLE16=Going To Memphis
TTITLE17=When Papa Played The Dobro
TTITLE18=Boss Jack
TTITLE19=Old Doc Brown
EXTD=
EXTT0=
EXTT1=
EXTT2=
EXTT3=
EXTT4=
EXTT5=
EXTT6=
EXTT7=
EXTT8=
EXTT9=
EXTT10=
EXTT11=
EXTT12=
EXTT13=
EXTT14=
EXTT15=
EXTT16=
EXTT17=
EXTT18=
EXTT19=
PLAYORDER=
